<?xml version="1.0" encoding="UTF-8"?>
<svg version="1.1" viewBox="0 0 1456 2048" width="1280" height="1280" xmlns="http://www.w3.org/2000/svg">
<path transform="translate(179,1673)" d="m0 0h38l20 2 25 4 26 7 21 7 24 11 22 12 16 11 12 9 14 12 12 11 13 14 11 14 11 16 9 15 8 15 11 27 8 29 4 25 1 11v36l-2 18-4 22-6 22-6 15-5 10h-459v-302l5-5 12-10 10-7 14-9 19-11 27-12 25-8 25-6 27-4z" fill="#02B1F5"/>
<path transform="translate(1101,404)" d="m0 0h31l17 2 20 4 20 6 16 7 16 8 16 10 13 10 14 12 10 10 9 11 9 12 10 16 10 19 8 21 4 13 5 25 2 19v27l-2 20-5 25-5 16-8 20-12 23-14 20-13 15-14 14-14 11-16 11-22 12-23 9-19 5-22 4-12 1h-26l-18-2-24-5-21-7-18-8-19-11-11-8-14-11-22-22-13-17-9-14-12-23-8-21-6-23-4-24-1-11v-24l2-19 5-25 6-20 7-16 8-16 8-14 14-19 12-13 14-14 20-15 18-11 16-8 18-7 23-6z" fill="#F9C11C"/>
<path transform="translate(1056,2)" d="m0 0h349l43 1 5 4v201l-4 10-10 18-15 22-11 12-7 8-15 14-13 10-15 10-16 9-17 8-24 8-22 5-22 3h-37l-21-3-22-5-18-6-18-8-19-10-16-11-10-8-10-9-12-11-7-8-10-12-12-18-9-16-9-19-10-30-5-25-2-18v-36l3-24 4-18 11-33 6-12 2-2z" fill="#E88034"/>
<path transform="translate(590,132)" d="m0 0h30l19 3 19 5 16 6 22 12 16 12 13 11 10 11 13 17 9 16 9 23 5 23 1 8v29l-3 19-5 19-9 21-9 15-9 11-12 14-10 9-9 7-15 10-22 11-18 6-25 5-12 1h-22l-21-3-17-4-20-8-22-12-18-14-12-11-9-10-12-16-9-16-7-18-5-19-2-12-1-11v-15l2-18 4-18 7-20 11-21 10-13 9-10 7-8 14-12 13-9 22-12 18-7 22-5z" fill="#F9C11C"/>
<path transform="translate(5,3)" d="m0 0h251l8 11 10 16 8 16 8 21 5 22 2 12 1 24-1 17-5 25-6 20-9 20-8 14-10 14-9 11-7 8-8 7-13 11-15 10-14 8-17 8-18 6-21 5-22 3h-33l-22-3-24-6-18-7-14-6-1-2v-283z" fill="#E88034"/>
<path transform="translate(221,1059)" d="m0 0h35l21 4 21 7 22 11 16 12 10 9 12 13 10 15 8 16 7 21 3 18v23l-2 14-6 20-7 16-10 16-8 10-11 12-13 10-11 7-17 9-21 7-22 5-14 1h-14l-17-2-19-5-15-5-20-10-19-14-10-9-9-11-8-11-10-18-6-17-4-16-1-6v-29l5-22 7-19 11-19 9-11 9-10 11-10 14-10 16-8 11-5 20-6z" fill="#F9C11C"/>
<path transform="translate(1444,967)" d="m0 0h9v379l-21-2-25-5-21-7-24-11-11-7-16-12-10-9-8-7-10-11-13-18-9-16-7-15-8-24-4-20-1-8v-36l4-24 5-17 8-20 9-17 9-13 8-10 9-10 12-12 14-11 15-10 19-10 24-9 22-5z" fill="#02B1F5"/>
<path transform="translate(674,706)" d="m0 0h17l21 3 17 5 17 8 11 7 11 9 12 12 8 10 10 18 6 16 4 18 1 15-2 22-6 21-8 16-7 11-12 14-10 9-11 8-21 11-20 6-19 3h-24l-14-2-20-6-21-10-11-8-11-9-10-11-8-11-10-18-6-18-3-20v-15l3-20 7-20 9-17 7-9 12-14 18-14 19-10 18-6 15-3z" fill="#02B1F5"/>
<path transform="translate(1027,1482)" d="m0 0h31l17 3 16 5 21 10 18 13 12 12 9 12 9 16 6 18 3 16v19l-2 14-5 17-8 16-7 11-12 13-10 9-15 10-17 8-20 6-20 3h-24l-19-3-21-7-21-11-14-11-13-13-7-10-8-14-6-16-3-11-2-16 1-17 4-18 5-13 7-13 7-10 11-12 7-7 16-11 16-8 14-5 17-4z" fill="#F9C11C"/>
<path transform="translate(1455,1682)" d="m0 0h1v47l-2 4-1 315h-152l-7-15-5-19-4-21-2-19v-29l3-25 5-23 8-24 8-18 10-19 8-12 12-16 10-11 7-8 10-9 15-12 18-12 23-12 31-12h2v-47z" fill="#E88034"/>
<path transform="translate(208,511)" d="m0 0h12l21 3 16 5 16 8 10 7 10 8 8 8 9 12 9 17 5 15 3 19v12l-2 16-5 16-8 17-9 12-9 10-8 7-10 7-15 8-15 5-13 3-22 2-21-2-18-5-16-8-10-6-15-12-7-8-8-11-8-14-6-18-3-19v-11l2-16 7-21 9-16 8-10 10-11 15-11 14-8 18-6 14-3z" fill="#E88034"/>
<path transform="translate(820,1835)" d="m0 0h19l16 3 13 5 13 8 13 11 10 12 8 15 5 16 2 13v12l-2 15-5 15-8 15-8 10-9 9-10 7-16 8-19 5-16 1-16-2-18-6-14-8-10-8-8-8-7-10-6-10-6-18-2-13v-15l4-20 7-16 8-12 11-12 12-9 16-8 14-4z" fill="#E88134"/>
<path transform="translate(866,1129)" d="m0 0h25l13 3 16 8 11 8 9 9 10 15 6 14 3 13 1 15-2 19-5 15-7 13-11 14-11 9-12 7-15 5-13 2h-13l-12-2-16-6-12-8-12-11-10-14-7-15-4-17v-23l4-17 5-12 7-11 9-11 14-11 14-7z" fill="#F9C11C"/>
<path transform="translate(543,1441)" d="m0 0h9l15 2 14 5 12 7 11 9 8 9 6 10 5 14 2 10v14l-2 11-4 12-7 12-8 10-13 10-14 7-13 4-8 1h-19l-14-3-17-8-9-7-12-12-8-13-4-10-2-9-1-11 2-16 4-13 8-13 9-10 9-8 14-8 17-5z" fill="#02B1F5"/>
<path transform="translate(658,1044)" d="m0 0 16 1 13 4 13 7 12 11 9 12 6 13 4 15v25l-4 15-8 16-7 9-8 8-13 8-18 6h-24l-15-5-12-7-12-11-9-14-4-8-4-14-1-6v-18l3-15 5-12 7-12 10-11 8-6 14-7 10-3z" fill="#E88134"/>
<path transform="translate(910)" d="m0 0h80v2l-4 1h-50l-25-1z" fill="#FEFEFE"/>
<path transform="translate(957)" d="m0 0h33v2l-4 1h-29z" fill="#FAC732"/>
<path transform="translate(1455,1682)" d="m0 0h1v31l-2-2-1-4v-22z" fill="#33C0F6"/>
<path transform="translate(1453,1707)" d="m0 0 3 6v16l-2 4h-1z" fill="#E7D374"/>
<path transform="translate(1365,1779)" d="m0 0 2 1-26 26v-3l14-15 8-7z" fill="#F5B22E"/>
<path transform="translate(1015,1)" d="m0 0 3 1z" fill="#FEFEFE"/>
</svg>
