<svg width="1203" height="486" viewBox="0 0 1203 486" fill="none" xmlns="http://www.w3.org/2000/svg">
<path d="M577.852 388V257.091H593.704V373.938H654.557V388H577.852ZM739.249 390.301C733.027 390.301 727.381 389.129 722.31 386.786C717.239 384.399 713.212 380.969 710.229 376.494C707.246 371.977 705.754 366.523 705.754 360.131C705.754 354.506 706.862 349.946 709.078 346.452C711.294 342.915 714.256 340.145 717.963 338.142C721.671 336.139 725.762 334.648 730.236 333.668C734.753 332.645 739.291 331.835 743.851 331.239C749.817 330.472 754.654 329.896 758.361 329.513C762.111 329.087 764.838 328.384 766.543 327.403C768.29 326.423 769.164 324.719 769.164 322.29V321.778C769.164 315.472 767.438 310.571 763.986 307.077C760.577 303.582 755.399 301.835 748.453 301.835C741.252 301.835 735.605 303.412 731.514 306.565C727.423 309.719 724.547 313.085 722.885 316.665L708.567 311.551C711.124 305.585 714.533 300.94 718.794 297.616C723.098 294.25 727.786 291.906 732.857 290.585C737.97 289.222 742.999 288.54 747.942 288.54C751.095 288.54 754.717 288.923 758.808 289.69C762.942 290.415 766.926 291.928 770.762 294.229C774.639 296.53 777.857 300.003 780.414 304.648C782.97 309.293 784.249 315.514 784.249 323.312V388H769.164V374.705H768.396C767.374 376.835 765.669 379.115 763.283 381.544C760.896 383.973 757.722 386.04 753.759 387.744C749.796 389.449 744.959 390.301 739.249 390.301ZM741.55 376.75C747.516 376.75 752.544 375.578 756.635 373.234C760.769 370.891 763.879 367.865 765.967 364.158C768.098 360.45 769.164 356.551 769.164 352.46V338.653C768.524 339.42 767.118 340.124 764.945 340.763C762.814 341.359 760.342 341.892 757.53 342.361C754.76 342.787 752.054 343.17 749.412 343.511C746.813 343.81 744.703 344.065 743.084 344.278C739.164 344.79 735.499 345.621 732.09 346.771C728.723 347.879 725.996 349.562 723.908 351.821C721.862 354.037 720.84 357.062 720.84 360.898C720.84 366.139 722.779 370.102 726.656 372.787C730.577 375.429 735.541 376.75 741.55 376.75ZM860.168 328.938V388H845.082V289.818H859.656V305.159H860.935C863.236 300.173 866.73 296.168 871.418 293.142C876.105 290.074 882.156 288.54 889.571 288.54C896.219 288.54 902.036 289.903 907.021 292.631C912.007 295.315 915.885 299.406 918.655 304.903C921.425 310.358 922.81 317.261 922.81 325.614V388H907.725V326.636C907.725 318.923 905.722 312.915 901.716 308.611C897.71 304.264 892.213 302.091 885.225 302.091C880.409 302.091 876.105 303.135 872.313 305.223C868.563 307.311 865.601 310.358 863.428 314.364C861.254 318.369 860.168 323.227 860.168 328.938ZM997.738 352.205L997.482 333.54H1000.55L1043.5 289.818H1062.17L1016.4 336.097H1015.12L997.738 352.205ZM983.675 388V257.091H998.761V388H983.675ZM1046.06 388L1007.71 339.42L1018.45 328.938L1065.24 388H1046.06ZM1143.78 390.301C1137.56 390.301 1131.91 389.129 1126.84 386.786C1121.77 384.399 1117.74 380.969 1114.76 376.494C1111.77 371.977 1110.28 366.523 1110.28 360.131C1110.28 354.506 1111.39 349.946 1113.61 346.452C1115.82 342.915 1118.78 340.145 1122.49 338.142C1126.2 336.139 1130.29 334.648 1134.76 333.668C1139.28 332.645 1143.82 331.835 1148.38 331.239C1154.35 330.472 1159.18 329.896 1162.89 329.513C1166.64 329.087 1169.37 328.384 1171.07 327.403C1172.82 326.423 1173.69 324.719 1173.69 322.29V321.778C1173.69 315.472 1171.97 310.571 1168.51 307.077C1165.11 303.582 1159.93 301.835 1152.98 301.835C1145.78 301.835 1140.13 303.412 1136.04 306.565C1131.95 309.719 1129.08 313.085 1127.41 316.665L1113.1 311.551C1115.65 305.585 1119.06 300.94 1123.32 297.616C1127.63 294.25 1132.31 291.906 1137.39 290.585C1142.5 289.222 1147.53 288.54 1152.47 288.54C1155.62 288.54 1159.25 288.923 1163.34 289.69C1167.47 290.415 1171.46 291.928 1175.29 294.229C1179.17 296.53 1182.39 300.003 1184.94 304.648C1187.5 309.293 1188.78 315.514 1188.78 323.312V388H1173.69V374.705H1172.93C1171.9 376.835 1170.2 379.115 1167.81 381.544C1165.43 383.973 1162.25 386.04 1158.29 387.744C1154.32 389.449 1149.49 390.301 1143.78 390.301ZM1146.08 376.75C1152.04 376.75 1157.07 375.578 1161.16 373.234C1165.3 370.891 1168.41 367.865 1170.5 364.158C1172.63 360.45 1173.69 356.551 1173.69 352.46V338.653C1173.05 339.42 1171.65 340.124 1169.47 340.763C1167.34 341.359 1164.87 341.892 1162.06 342.361C1159.29 342.787 1156.58 343.17 1153.94 343.511C1151.34 343.81 1149.23 344.065 1147.61 344.278C1143.69 344.79 1140.03 345.621 1136.62 346.771C1133.25 347.879 1130.52 349.562 1128.44 351.821C1126.39 354.037 1125.37 357.062 1125.37 360.898C1125.37 366.139 1127.31 370.102 1131.19 372.787C1135.11 375.429 1140.07 376.75 1146.08 376.75Z" fill="white"/>
<path d="M577.512 119.911V97.0909H685.026V119.911H644.948V228H617.59V119.911H577.512ZM755.423 186.196V129.818H782.653V228H756.51V210.166H755.487C753.271 215.919 749.585 220.543 744.429 224.037C739.315 227.531 733.072 229.278 725.7 229.278C719.138 229.278 713.364 227.787 708.378 224.804C703.392 221.821 699.493 217.581 696.68 212.084C693.911 206.587 692.504 200.003 692.462 192.332V129.818H719.692V187.474C719.734 193.27 721.29 197.851 724.358 201.217C727.426 204.584 731.538 206.267 736.695 206.267C739.976 206.267 743.044 205.521 745.899 204.03C748.754 202.496 751.055 200.237 752.803 197.254C754.592 194.271 755.466 190.585 755.423 186.196ZM808.034 228V129.818H835.264V228H808.034ZM821.713 117.162C817.665 117.162 814.192 115.82 811.294 113.135C808.439 110.408 807.012 107.148 807.012 103.355C807.012 99.6051 808.439 96.3878 811.294 93.7031C814.192 90.9758 817.665 89.6122 821.713 89.6122C825.762 89.6122 829.213 90.9758 832.068 93.7031C834.966 96.3878 836.415 99.6051 836.415 103.355C836.415 107.148 834.966 110.408 832.068 113.135C829.213 115.82 825.762 117.162 821.713 117.162ZM912.9 129.818V150.273H853.774V129.818H912.9ZM867.197 106.295H894.427V197.83C894.427 200.344 894.811 202.304 895.578 203.71C896.345 205.074 897.41 206.033 898.774 206.587C900.18 207.141 901.799 207.418 903.632 207.418C904.91 207.418 906.189 207.311 907.467 207.098C908.745 206.842 909.726 206.651 910.407 206.523L914.69 226.786C913.326 227.212 911.409 227.702 908.937 228.256C906.466 228.852 903.461 229.214 899.924 229.342C893.362 229.598 887.609 228.724 882.666 226.722C877.765 224.719 873.951 221.608 871.224 217.389C868.497 213.17 867.155 207.844 867.197 201.409V106.295ZM934.238 228V129.818H961.468V228H934.238ZM947.917 117.162C943.869 117.162 940.396 115.82 937.498 113.135C934.643 110.408 933.215 107.148 933.215 103.355C933.215 99.6051 934.643 96.3878 937.498 93.7031C940.396 90.9758 943.869 89.6122 947.917 89.6122C951.965 89.6122 955.417 90.9758 958.272 93.7031C961.17 96.3878 962.619 99.6051 962.619 103.355C962.619 107.148 961.17 110.408 958.272 113.135C955.417 115.82 951.965 117.162 947.917 117.162ZM1031.24 229.918C1021.31 229.918 1012.73 227.808 1005.48 223.589C998.28 219.328 992.719 213.405 988.799 205.82C984.878 198.192 982.918 189.349 982.918 179.293C982.918 169.151 984.878 160.287 988.799 152.702C992.719 145.074 998.28 139.151 1005.48 134.932C1012.73 130.67 1021.31 128.54 1031.24 128.54C1041.17 128.54 1049.74 130.67 1056.94 134.932C1064.18 139.151 1069.76 145.074 1073.69 152.702C1077.61 160.287 1079.57 169.151 1079.57 179.293C1079.57 189.349 1077.61 198.192 1073.69 205.82C1069.76 213.405 1064.18 219.328 1056.94 223.589C1049.74 227.808 1041.17 229.918 1031.24 229.918ZM1031.37 208.824C1035.89 208.824 1039.66 207.545 1042.68 204.989C1045.71 202.389 1047.99 198.852 1049.52 194.378C1051.1 189.903 1051.89 184.811 1051.89 179.101C1051.89 173.391 1051.1 168.298 1049.52 163.824C1047.99 159.349 1045.71 155.812 1042.68 153.213C1039.66 150.614 1035.89 149.314 1031.37 149.314C1026.81 149.314 1022.97 150.614 1019.86 153.213C1016.8 155.812 1014.47 159.349 1012.9 163.824C1011.36 168.298 1010.6 173.391 1010.6 179.101C1010.6 184.811 1011.36 189.903 1012.9 194.378C1014.47 198.852 1016.8 202.389 1019.86 204.989C1022.97 207.545 1026.81 208.824 1031.37 208.824ZM1128.1 171.239V228H1100.87V129.818H1126.82V147.141H1127.97C1130.15 141.43 1133.79 136.913 1138.9 133.589C1144.02 130.223 1150.22 128.54 1157.51 128.54C1164.32 128.54 1170.27 130.031 1175.34 133.014C1180.41 135.997 1184.35 140.259 1187.16 145.798C1189.98 151.295 1191.38 157.858 1191.38 165.486V228H1164.15V170.344C1164.2 164.335 1162.66 159.648 1159.55 156.281C1156.44 152.872 1152.16 151.168 1146.7 151.168C1143.04 151.168 1139.8 151.956 1136.99 153.533C1134.22 155.109 1132.04 157.411 1130.47 160.436C1128.93 163.419 1128.14 167.02 1128.1 171.239Z" fill="white"/>
<path d="M52.0282 412.498C32.547 388.528 17.1123 361.252 8.66969 331.54C0.227102 301.827 -2.08143 270.708 1.88459 240.075C5.85061 209.443 16.0082 179.937 31.7393 153.355C47.4704 126.772 67.5512 105.651 92.4946 87.4326L97.3862 89.656C74.5494 106.336 57.9817 129.018 43.5792 153.355C29.1767 177.692 20.0844 212.03 16.4534 240.075C12.8223 268.121 17.6175 297.692 25.3471 324.895C33.0766 352.098 41.752 369.652 59.5879 391.598L52.0282 412.498Z" fill="#235ED5"/>
<path d="M411.779 412.054C431.26 388.083 446.695 360.808 455.137 331.095C463.58 301.383 465.889 270.264 461.923 239.631C457.957 208.998 447.799 179.493 432.068 152.911C416.337 126.328 396.256 105.207 371.313 86.9883L366.421 89.2117C389.258 105.892 405.825 128.573 420.228 152.911C434.63 177.248 443.723 211.586 447.354 239.631C450.985 267.677 446.19 297.248 438.46 324.45C430.73 351.653 422.055 369.208 404.219 391.153L411.779 412.054Z" fill="#235ED5"/>
<path d="M393.547 411.934C322.068 412.424 284.524 418.645 232.126 463.962C179.728 418.645 142.184 412.424 70.7051 411.934L80.4883 381.25C150.803 394.957 191.484 400.79 232.126 458.181C272.768 400.79 313.449 394.957 383.764 381.25L393.547 411.934Z" fill="#235ED5"/>
<path d="M232.376 473.148C285.137 428.654 322.095 418.617 397.104 419.55L405.998 443.564C328.309 435.458 290.539 445.311 232.57 485.06V485.306C232.51 485.265 232.45 485.224 232.39 485.183C232.302 485.243 232.214 485.303 232.126 485.363V485.003C174.009 445.289 136.142 435.443 58.2539 443.542L67.1699 419.55C142.398 418.617 179.45 428.654 232.376 473.148Z" fill="#235ED5"/>
<path d="M230.133 0.356449C231.185 -0.117374 232.291 -0.0950821 233.242 0.283207C234.032 0.113646 234.889 0.181823 235.713 0.552738L368.03 60.1123C371.189 61.5342 371.169 66.0258 367.999 67.4209L294.25 99.8731C293.43 100.234 292.514 100.308 291.646 100.086L234.115 85.3496C233.616 85.2216 233.161 84.9995 232.761 84.71C232.414 84.9308 232.029 85.1033 231.614 85.21L173.845 100.049C172.98 100.271 172.065 100.197 171.247 99.8389L97.3054 67.4775C94.1286 66.0871 94.1052 61.5885 97.2673 60.165L230.133 0.356449Z" fill="#235ED5"/>
<path d="M112.95 107.977C116.577 109.259 119.176 112.716 119.176 116.782C119.176 120.013 117.534 122.859 115.041 124.536L116.063 127.455C117.246 130.115 118.13 132.898 118.701 135.752L118.731 135.904L119.62 140.796L120.955 146.132L121.844 151.913L122.733 156.359C122.958 158.539 122.722 159.749 121.604 160.161C119.225 161.037 116.561 159.917 114.026 159.917C111.246 159.917 108.477 160.28 105.79 160.996L103.167 161.696C101.272 162.017 99.8626 162.123 98.7539 161.684C95.9318 160.565 96.1636 156.576 96.3799 153.548C96.4576 152.459 96.6158 151.378 96.8525 150.312L97.3867 147.91L98.2754 143.019L99.165 138.572L100.055 135.015L100.943 131.457L102.278 127.455L103.499 123.638C101.655 121.932 100.499 119.493 100.499 116.782C100.499 113.057 102.68 109.842 105.835 108.343V66.5322H112.95V107.977ZM302.831 95.4365V139.905L255.249 107.889C239.282 95.4208 229.768 91.5209 208.558 107.889L161.865 139.905V95.4365L229.902 58.5283L302.831 95.4365Z" fill="#235ED5"/>
<path d="M226.075 166.095C228.733 164.312 232.304 166.217 232.304 169.417V208.792C232.304 210.18 231.584 211.469 230.402 212.197L206.149 227.133V369.684C206.149 371.012 205.072 372.089 203.743 372.09C181.495 372.09 163.458 354.053 163.458 331.804V253.425L117.551 281.697C114.886 283.338 111.454 281.421 111.453 278.292V245.142C111.453 243.809 112.117 242.563 113.224 241.82L226.075 166.095Z" fill="#235ED5"/>
<path d="M231.991 111.512L232 111.5L389.661 214.877C398.635 220.762 402.612 231.889 399.401 242.129L399.191 242.798C398.395 245.337 395.388 246.405 393.169 244.938L232.624 138.819L70.734 245.827C68.5144 247.294 65.5077 246.226 64.7115 243.688L64.4762 242.936C61.2772 232.735 65.2107 221.647 74.1237 215.744L231.84 111.285L231.991 111.512Z" fill="#235ED5"/>
<path d="M252.26 180.14C252.26 176.957 255.798 175.048 258.458 176.797L293.458 199.815C294.582 200.554 295.26 201.81 295.26 203.156V329.401H350.912C353.055 329.401 354.793 331.138 354.793 333.281C354.792 354.715 337.417 372.09 315.984 372.09H273.86C262.247 372.09 252.799 362.815 252.521 351.269C252.35 350.111 252.26 348.927 252.26 347.722V180.14Z" fill="#235ED5"/>
</svg>
