<svg width="1204" height="486" viewBox="0 0 1204 486" fill="none" xmlns="http://www.w3.org/2000/svg">
<path d="M52.0282 412.498C32.547 388.528 17.1123 361.252 8.66969 331.54C0.227102 301.827 -2.08143 270.708 1.88459 240.075C5.85061 209.443 16.0082 179.937 31.7393 153.355C47.4704 126.772 67.5512 105.651 92.4946 87.4326L97.3862 89.656C74.5494 106.336 57.9817 129.018 43.5792 153.355C29.1767 177.692 20.0844 212.03 16.4534 240.075C12.8223 268.121 17.6175 297.692 25.3471 324.895C33.0766 352.098 41.752 369.652 59.5879 391.598L52.0282 412.498Z" fill="#235ED5"/>
<path d="M411.779 412.053C431.26 388.082 446.695 360.807 455.137 331.094C463.58 301.382 465.889 270.263 461.923 239.63C457.957 208.997 447.799 179.492 432.068 152.91C416.337 126.327 396.256 105.206 371.313 86.9873L366.421 89.2107C389.258 105.891 405.825 128.572 420.228 152.91C434.63 177.247 443.723 211.585 447.354 239.63C450.985 267.676 446.19 297.247 438.46 324.449C430.73 351.652 422.055 369.207 404.219 391.152L411.779 412.053Z" fill="#235ED5"/>
<path d="M393.547 411.934C322.068 412.424 284.524 418.645 232.126 463.962C179.728 418.645 142.184 412.424 70.7051 411.934L80.4883 381.25C150.803 394.957 191.484 400.79 232.126 458.181C272.768 400.79 313.449 394.957 383.764 381.25L393.547 411.934Z" fill="#235ED5"/>
<path d="M232.376 473.148C285.137 428.654 322.095 418.617 397.104 419.55L405.998 443.564C328.309 435.458 290.538 445.311 232.57 485.06V485.306C232.51 485.265 232.45 485.224 232.389 485.183C232.302 485.243 232.214 485.303 232.126 485.363V485.003C174.009 445.289 136.142 435.443 58.2537 443.542L67.1697 419.55C142.397 418.617 179.45 428.654 232.376 473.148Z" fill="#235ED5"/>
<path d="M230.133 0.356465C231.185 -0.11732 232.291 -0.0951431 233.242 0.283223C234.032 0.113668 234.889 0.181843 235.713 0.552755L368.03 60.1123C371.189 61.5342 371.169 66.0258 367.999 67.4209L294.25 99.8721C293.43 100.233 292.514 100.308 291.646 100.086L234.115 85.3496C233.616 85.2217 233.161 84.9996 232.762 84.71C232.414 84.931 232.029 85.1033 231.613 85.21L173.846 100.049C172.98 100.271 172.065 100.197 171.246 99.8389L97.3045 67.4766C94.1283 66.086 94.1048 61.5885 97.2664 60.1651L230.133 0.356465Z" fill="#235ED5"/>
<path d="M112.95 107.977C116.577 109.259 119.176 112.716 119.176 116.782C119.176 120.013 117.535 122.859 115.041 124.536L116.064 127.455C117.246 130.115 118.131 132.898 118.701 135.752L118.732 135.904L119.62 140.796L120.955 146.132L121.844 151.913L122.734 156.359C122.958 158.539 122.722 159.749 121.604 160.161C119.225 161.037 116.561 159.917 114.027 159.917C111.246 159.917 108.477 160.28 105.79 160.996L103.167 161.696C101.273 162.017 99.8628 162.123 98.7542 161.684C95.9321 160.565 96.1638 156.576 96.3801 153.548C96.4579 152.459 96.616 151.378 96.8528 150.312L97.387 147.91L98.2756 143.019L99.1653 138.572L100.055 135.015L100.944 131.457L102.279 127.455L103.499 123.638C101.655 121.932 100.499 119.493 100.499 116.782C100.499 113.057 102.68 109.842 105.835 108.343V66.5322H112.95V107.977ZM302.831 95.4365V139.905L255.249 107.889C239.282 95.4208 229.768 91.5209 208.558 107.889L161.865 139.905V95.4365L229.903 58.5283L302.831 95.4365Z" fill="#235ED5"/>
<path d="M226.1 166.01C228.76 164.255 232.304 166.162 232.304 169.348V208.787C232.304 210.177 231.582 211.467 230.397 212.195L206.148 227.083V369.683C206.148 371.011 205.072 372.088 203.744 372.088C181.495 372.088 163.459 354.052 163.459 331.803V253.292L117.094 281.758C114.428 283.395 111 281.478 111 278.35V244.151C111 242.807 111.675 241.553 112.797 240.813L226.1 166.01Z" fill="#235ED5"/>
<path d="M231.991 111.511L232 111.499L389.661 214.876C398.636 220.761 402.613 231.888 399.401 242.128L399.192 242.797C398.395 245.335 395.389 246.404 393.169 244.938L232.624 138.818L70.7345 245.826C68.5149 247.293 65.5082 246.225 64.712 243.687L64.4767 242.935C61.2777 232.734 65.2112 221.646 74.1241 215.743L231.841 111.284L231.991 111.511Z" fill="#235ED5"/>
<path d="M252.38 181.21C252.381 178.012 255.947 176.107 258.605 177.886L293.602 201.309C294.713 202.052 295.379 203.302 295.378 204.639L295.201 329.399H350.912C353.055 329.399 354.793 331.137 354.793 333.28C354.792 354.714 337.417 372.089 315.984 372.089H273.86C262.072 372.089 252.515 362.533 252.515 350.744C252.515 350.601 252.517 350.457 252.52 350.314C252.429 349.462 252.38 348.596 252.38 347.72V181.21Z" fill="#235ED5"/>
<path d="M578.852 400.999V270.09H594.705V386.937H655.557V400.999H578.852ZM740.249 403.3C734.027 403.3 728.381 402.128 723.31 399.785C718.239 397.398 714.212 393.968 711.229 389.493C708.246 384.976 706.755 379.522 706.755 373.13C706.755 367.505 707.863 362.945 710.078 359.451C712.294 355.914 715.256 353.144 718.963 351.141C722.671 349.138 726.762 347.647 731.236 346.667C735.753 345.644 740.291 344.834 744.851 344.238C750.817 343.471 755.654 342.895 759.361 342.512C763.111 342.086 765.838 341.383 767.543 340.402C769.29 339.422 770.164 337.718 770.164 335.289V334.777C770.164 328.471 768.438 323.57 764.986 320.076C761.577 316.581 756.399 314.834 749.453 314.834C742.252 314.834 736.605 316.411 732.514 319.564C728.424 322.718 725.547 326.084 723.885 329.664L709.567 324.55C712.124 318.584 715.533 313.939 719.794 310.615C724.098 307.249 728.786 304.905 733.857 303.584C738.97 302.221 743.999 301.539 748.942 301.539C752.095 301.539 755.718 301.922 759.809 302.689C763.942 303.414 767.926 304.927 771.762 307.228C775.639 309.529 778.857 313.002 781.414 317.647C783.97 322.292 785.249 328.513 785.249 336.312V400.999H770.164V387.704H769.397C768.374 389.834 766.669 392.114 764.283 394.543C761.897 396.972 758.722 399.039 754.759 400.743C750.796 402.448 745.959 403.3 740.249 403.3ZM742.55 389.749C748.516 389.749 753.544 388.577 757.635 386.233C761.769 383.89 764.88 380.864 766.968 377.157C769.098 373.449 770.164 369.55 770.164 365.459V351.652C769.524 352.419 768.118 353.123 765.945 353.762C763.814 354.358 761.343 354.891 758.53 355.36C755.76 355.786 753.054 356.169 750.412 356.51C747.813 356.809 745.703 357.064 744.084 357.277C740.164 357.789 736.499 358.62 733.09 359.77C729.723 360.878 726.996 362.562 724.908 364.82C722.863 367.036 721.84 370.062 721.84 373.897C721.84 379.138 723.779 383.101 727.657 385.786C731.577 388.428 736.541 389.749 742.55 389.749ZM861.168 341.937V400.999H846.083V302.817H860.656V318.158H861.935C864.236 313.172 867.73 309.167 872.418 306.141C877.105 303.073 883.156 301.539 890.571 301.539C897.219 301.539 903.036 302.902 908.022 305.63C913.007 308.314 916.885 312.405 919.655 317.902C922.425 323.357 923.81 330.26 923.81 338.613V400.999H908.725V339.635C908.725 331.922 906.722 325.914 902.716 321.61C898.71 317.263 893.213 315.09 886.225 315.09C881.409 315.09 877.105 316.134 873.313 318.222C869.563 320.31 866.601 323.357 864.428 327.363C862.254 331.368 861.168 336.226 861.168 341.937ZM998.738 365.204L998.482 346.539H1001.55L1044.51 302.817H1063.17L1017.4 349.096H1016.12L998.738 365.204ZM984.676 400.999V270.09H999.761V400.999H984.676ZM1047.06 400.999L1008.71 352.419L1019.45 341.937L1066.24 400.999H1047.06ZM1144.78 403.3C1138.56 403.3 1132.91 402.128 1127.84 399.785C1122.77 397.398 1118.74 393.968 1115.76 389.493C1112.77 384.976 1111.28 379.522 1111.28 373.13C1111.28 367.505 1112.39 362.945 1114.61 359.451C1116.82 355.914 1119.78 353.144 1123.49 351.141C1127.2 349.138 1131.29 347.647 1135.76 346.667C1140.28 345.644 1144.82 344.834 1149.38 344.238C1155.35 343.471 1160.18 342.895 1163.89 342.512C1167.64 342.086 1170.37 341.383 1172.07 340.402C1173.82 339.422 1174.69 337.718 1174.69 335.289V334.777C1174.69 328.471 1172.97 323.57 1169.52 320.076C1166.11 316.581 1160.93 314.834 1153.98 314.834C1146.78 314.834 1141.13 316.411 1137.04 319.564C1132.95 322.718 1130.08 326.084 1128.41 329.664L1114.1 324.55C1116.65 318.584 1120.06 313.939 1124.32 310.615C1128.63 307.249 1133.31 304.905 1138.39 303.584C1143.5 302.221 1148.53 301.539 1153.47 301.539C1156.62 301.539 1160.25 301.922 1164.34 302.689C1168.47 303.414 1172.46 304.927 1176.29 307.228C1180.17 309.529 1183.39 313.002 1185.94 317.647C1188.5 322.292 1189.78 328.513 1189.78 336.312V400.999H1174.69V387.704H1173.93C1172.9 389.834 1171.2 392.114 1168.81 394.543C1166.43 396.972 1163.25 399.039 1159.29 400.743C1155.32 402.448 1150.49 403.3 1144.78 403.3ZM1147.08 389.749C1153.04 389.749 1158.07 388.577 1162.16 386.233C1166.3 383.89 1169.41 380.864 1171.5 377.157C1173.63 373.449 1174.69 369.55 1174.69 365.459V351.652C1174.05 352.419 1172.65 353.123 1170.47 353.762C1168.34 354.358 1165.87 354.891 1163.06 355.36C1160.29 355.786 1157.58 356.169 1154.94 356.51C1152.34 356.809 1150.23 357.064 1148.61 357.277C1144.69 357.789 1141.03 358.62 1137.62 359.77C1134.25 360.878 1131.52 362.562 1129.44 364.82C1127.39 367.036 1126.37 370.062 1126.37 373.897C1126.37 379.138 1128.31 383.101 1132.19 385.786C1136.11 388.428 1141.07 389.749 1147.08 389.749Z" fill="#235ED5"/>
<path d="M578.512 132.91V110.09H686.027V132.91H645.948V240.999H618.59V132.91H578.512ZM756.423 199.195V142.817H783.654V240.999H757.51V223.165H756.487C754.271 228.918 750.585 233.542 745.429 237.036C740.315 240.53 734.073 242.277 726.7 242.277C720.138 242.277 714.364 240.786 709.378 237.803C704.392 234.82 700.493 230.58 697.681 225.083C694.911 219.586 693.504 213.002 693.462 205.331V142.817H720.692V200.473C720.735 206.269 722.29 210.85 725.358 214.216C728.426 217.583 732.538 219.266 737.695 219.266C740.976 219.266 744.044 218.52 746.899 217.029C749.754 215.495 752.056 213.236 753.803 210.253C755.592 207.27 756.466 203.584 756.423 199.195ZM809.034 240.999V142.817H836.265V240.999H809.034ZM822.713 130.161C818.665 130.161 815.192 128.819 812.294 126.134C809.439 123.407 808.012 120.147 808.012 116.354C808.012 112.604 809.439 109.387 812.294 106.702C815.192 103.975 818.665 102.611 822.713 102.611C826.762 102.611 830.213 103.975 833.069 106.702C835.966 109.387 837.415 112.604 837.415 116.354C837.415 120.147 835.966 123.407 833.069 126.134C830.213 128.819 826.762 130.161 822.713 130.161ZM913.9 142.817V163.272H854.774V142.817H913.9ZM868.197 119.294H895.427V210.829C895.427 213.343 895.811 215.303 896.578 216.709C897.345 218.073 898.41 219.032 899.774 219.586C901.18 220.14 902.8 220.417 904.632 220.417C905.91 220.417 907.189 220.31 908.467 220.097C909.746 219.841 910.726 219.65 911.408 219.522L915.69 239.785C914.327 240.211 912.409 240.701 909.937 241.255C907.466 241.851 904.461 242.214 900.925 242.341C894.362 242.597 888.609 241.723 883.666 239.721C878.765 237.718 874.952 234.607 872.224 230.388C869.497 226.169 868.155 220.843 868.197 214.408V119.294ZM935.238 240.999V142.817H962.468V240.999H935.238ZM948.917 130.161C944.869 130.161 941.396 128.819 938.498 126.134C935.643 123.407 934.216 120.147 934.216 116.354C934.216 112.604 935.643 109.387 938.498 106.702C941.396 103.975 944.869 102.611 948.917 102.611C952.966 102.611 956.417 103.975 959.272 106.702C962.17 109.387 963.619 112.604 963.619 116.354C963.619 120.147 962.17 123.407 959.272 126.134C956.417 128.819 952.966 130.161 948.917 130.161ZM1032.24 242.917C1022.31 242.917 1013.73 240.807 1006.48 236.589C999.28 232.327 993.719 226.404 989.799 218.819C985.878 211.191 983.918 202.348 983.918 192.292C983.918 182.15 985.878 173.286 989.799 165.701C993.719 158.073 999.28 152.15 1006.48 147.931C1013.73 143.669 1022.31 141.539 1032.24 141.539C1042.17 141.539 1050.74 143.669 1057.94 147.931C1065.18 152.15 1070.76 158.073 1074.69 165.701C1078.61 173.286 1080.57 182.15 1080.57 192.292C1080.57 202.348 1078.61 211.191 1074.69 218.819C1070.76 226.404 1065.18 232.327 1057.94 236.589C1050.74 240.807 1042.17 242.917 1032.24 242.917ZM1032.37 221.823C1036.89 221.823 1040.66 220.544 1043.68 217.988C1046.71 215.388 1048.99 211.851 1050.52 207.377C1052.1 202.902 1052.89 197.81 1052.89 192.1C1052.89 186.39 1052.1 181.297 1050.52 176.823C1048.99 172.348 1046.71 168.812 1043.68 166.212C1040.66 163.613 1036.89 162.313 1032.37 162.313C1027.81 162.313 1023.98 163.613 1020.86 166.212C1017.8 168.812 1015.47 172.348 1013.9 176.823C1012.36 181.297 1011.6 186.39 1011.6 192.1C1011.6 197.81 1012.36 202.902 1013.9 207.377C1015.47 211.851 1017.8 215.388 1020.86 217.988C1023.98 220.544 1027.81 221.823 1032.37 221.823ZM1129.1 184.238V240.999H1101.87V142.817H1127.82V160.14H1128.97C1131.15 154.429 1134.79 149.912 1139.9 146.589C1145.02 143.222 1151.22 141.539 1158.51 141.539C1165.32 141.539 1171.27 143.03 1176.34 146.013C1181.41 148.996 1185.35 153.258 1188.16 158.797C1190.98 164.294 1192.38 170.857 1192.38 178.485V240.999H1165.15V183.343C1165.2 177.334 1163.66 172.647 1160.55 169.28C1157.44 165.871 1153.16 164.167 1147.7 164.167C1144.04 164.167 1140.8 164.955 1137.99 166.532C1135.22 168.108 1133.04 170.41 1131.47 173.435C1129.93 176.418 1129.14 180.019 1129.1 184.238Z" fill="#235ED5"/>
</svg>
