<svg width="464" height="486" viewBox="0 0 464 486" fill="none" xmlns="http://www.w3.org/2000/svg">
<path d="M52.0282 412.498C32.547 388.528 17.1123 361.252 8.66969 331.54C0.227102 301.827 -2.08143 270.708 1.88459 240.075C5.85061 209.443 16.0082 179.937 31.7393 153.355C47.4704 126.772 67.5512 105.651 92.4946 87.4326L97.3862 89.656C74.5494 106.336 57.9817 129.018 43.5792 153.355C29.1767 177.692 20.0844 212.03 16.4534 240.075C12.8223 268.121 17.6175 297.692 25.3471 324.895C33.0766 352.098 41.752 369.652 59.5879 391.598L52.0282 412.498Z" fill="#235ED5"/>
<path d="M411.779 412.054C431.26 388.083 446.695 360.808 455.137 331.095C463.58 301.383 465.889 270.264 461.923 239.631C457.957 208.998 447.799 179.493 432.068 152.911C416.337 126.328 396.256 105.207 371.313 86.9883L366.421 89.2117C389.258 105.892 405.825 128.573 420.228 152.911C434.63 177.248 443.723 211.586 447.354 239.631C450.985 267.677 446.19 297.248 438.46 324.45C430.73 351.653 422.055 369.208 404.219 391.153L411.779 412.054Z" fill="#235ED5"/>
<path d="M393.547 411.934C322.068 412.424 284.524 418.645 232.126 463.962C179.728 418.645 142.184 412.424 70.7051 411.934L80.4883 381.25C150.803 394.957 191.484 400.79 232.126 458.181C272.768 400.79 313.449 394.957 383.764 381.25L393.547 411.934Z" fill="#235ED5"/>
<path d="M232.376 473.148C285.137 428.654 322.095 418.617 397.104 419.55L405.998 443.564C328.309 435.458 290.538 445.311 232.57 485.06V485.306C232.51 485.265 232.45 485.224 232.389 485.183C232.302 485.243 232.214 485.303 232.126 485.363V485.003C174.009 445.289 136.142 435.443 58.2537 443.542L67.1697 419.55C142.397 418.617 179.45 428.654 232.376 473.148Z" fill="#235ED5"/>
<path d="M230.133 0.356465C231.186 -0.117314 232.291 -0.0951487 233.242 0.283223C234.032 0.113716 234.889 0.18187 235.713 0.552754L368.031 60.1123C371.189 61.5343 371.17 66.0258 367.999 67.4209L294.25 99.8721C293.431 100.233 292.514 100.308 291.647 100.086L234.115 85.3496C233.616 85.2217 233.161 84.9995 232.762 84.71C232.414 84.931 232.029 85.1032 231.614 85.21L173.846 100.049C172.98 100.271 172.065 100.197 171.246 99.8389L97.3049 67.4776C94.1284 66.0871 94.105 61.5886 97.2668 60.1651L230.133 0.356465Z" fill="#235ED5"/>
<path d="M112.95 107.977C116.577 109.259 119.176 112.716 119.176 116.782C119.176 120.013 117.535 122.859 115.041 124.536L116.063 127.455C117.245 130.115 118.13 132.898 118.7 135.752L118.732 135.904L119.62 140.796L120.954 146.132L121.844 151.913L122.734 156.359C122.958 158.539 122.722 159.749 121.604 160.161C119.225 161.037 116.561 159.917 114.027 159.917C111.246 159.917 108.477 160.28 105.79 160.996L103.167 161.696C101.273 162.017 99.8628 162.123 98.7542 161.684C95.932 160.565 96.1639 156.576 96.3801 153.548C96.4579 152.459 96.6161 151.378 96.8528 150.312L97.386 147.91L98.2757 143.019L99.1653 138.572L100.055 135.015L100.944 131.457L102.278 127.455L103.499 123.637C101.655 121.931 100.499 119.492 100.499 116.782C100.499 113.057 102.68 109.842 105.835 108.343V66.5322H112.95V107.977ZM302.831 95.4365V139.905L255.249 107.889C239.282 95.4208 229.768 91.5209 208.558 107.889L161.865 139.905V95.4365L229.903 58.5283L302.831 95.4365Z" fill="#235ED5"/>
<path d="M226.091 166.044C228.749 164.278 232.305 166.184 232.305 169.376V208.788C232.305 210.179 231.582 211.47 230.397 212.197L206.148 227.084V369.685C206.148 371.013 205.071 372.09 203.743 372.09C181.495 372.09 163.459 354.053 163.459 331.805V253.293L117.093 281.76C114.428 283.396 111 281.478 111 278.351V244.646C111 243.306 111.67 242.055 112.786 241.314L226.091 166.044Z" fill="#235ED5"/>
<path d="M231.991 111.512L232 111.5L389.661 214.877C398.635 220.762 402.612 231.889 399.401 242.129L399.191 242.798C398.395 245.337 395.388 246.405 393.169 244.938L232.624 138.819L70.734 245.827C68.5144 247.294 65.5077 246.226 64.7115 243.688L64.4762 242.936C61.2772 232.735 65.2107 221.647 74.1237 215.744L231.84 111.285L231.991 111.512Z" fill="#235ED5"/>
<path d="M252.26 179.14C252.26 175.957 255.799 174.048 258.458 175.797L293.458 198.815C294.583 199.555 295.26 200.811 295.26 202.157V329.401H350.912C353.055 329.401 354.792 331.138 354.792 333.282C354.792 354.715 337.417 372.09 315.984 372.09H273.86C262.246 372.09 252.799 362.815 252.521 351.269C252.35 350.112 252.26 348.927 252.26 347.722V179.14Z" fill="#235ED5"/>
</svg>
